<?xml version="1.0" encoding="utf-8"?>
<!-- Generator: Adobe Illustrator 17.0.0, SVG Export Plug-In . SVG Version: 6.00 Build 0)  -->
<!DOCTYPE svg PUBLIC "-//W3C//DTD SVG 1.1//EN" "http://www.w3.org/Graphics/SVG/1.1/DTD/svg11.dtd">
<svg version="1.1" id="图形" xmlns="http://www.w3.org/2000/svg" xmlns:xlink="http://www.w3.org/1999/xlink" x="0px" y="0px"
	 width="1000.636px" height="1000.678px" viewBox="15.167 -16.333 1000.636 1000.678"
	 enable-background="new 15.167 -16.333 1000.636 1000.678" xml:space="preserve">
<path fill="#A0A4A9" d="M952.963,474.907c5.166,241.827-186.722,442.088-428.584,447.26
	C282.518,927.333,82.291,735.41,77.119,493.583C71.953,251.759,263.841,51.495,505.703,46.326S947.825,233.08,952.963,474.907z"/>
<g>
	<path fill="#FFFFFF" d="M447.798,216.275l-8.892,14.449c44.458,50.389,86.137,101.142,125.038,152.269l-36.678,31.12
		c-42.609-59.276-80.398-107.437-113.368-144.489c-37.79,59.649-84.47,114.111-140.043,163.384
		c-11.857-14.449-22.785-25.932-32.788-34.455c72.244-59.645,122.259-120.406,150.046-182.278H447.798z M336.653,572.495
		c22.598,24.825,44.458,48.904,65.576,72.244l77.246-123.927H276.079v-41.124h254.523v41.679l-98.919,156.715
		c11.853,12.964,23.523,25.932,35.011,38.901l-35.567,32.232c-37.051-46.312-79.1-95.767-126.149-148.379L336.653,572.495z
		 M366.662,370.211l36.122-21.117c20.006,31.494,38.345,61.316,55.017,89.472l-40.012,24.452
		C401.486,430.047,384.445,399.109,366.662,370.211z M713.991,430.785c49.642,43.347,74.65,91.139,75.023,143.378
		c-0.373,58.168-26.305,91.325-77.801,99.474c-20.379,2.223-43.902,1.298-70.578-2.779c-1.485-13.337-4.264-30.378-8.336-51.127
		c21.486,5.557,41.493,8.336,60.018,8.336c35.936,0,52.608-21.673,50.016-65.02c-1.485-37.79-28.342-79.469-80.581-125.038
		c27.413-57.422,50.385-110.034,68.91-157.826H621.185v474.034h-43.347V240.171h199.506v41.68
		C756.227,332.977,735.108,382.623,713.991,430.785z"/>
</g>
</svg>
