<?xml version="1.0" encoding="utf-8"?>
<!-- Generator: Adobe Illustrator 17.0.0, SVG Export Plug-In . SVG Version: 6.00 Build 0)  -->
<!DOCTYPE svg PUBLIC "-//W3C//DTD SVG 1.1//EN" "http://www.w3.org/Graphics/SVG/1.1/DTD/svg11.dtd">
<svg version="1.1" id="图形" xmlns="http://www.w3.org/2000/svg" xmlns:xlink="http://www.w3.org/1999/xlink" x="0px" y="0px"
	 width="1000.636px" height="1000.678px" viewBox="15.167 -16.333 1000.636 1000.678"
	 enable-background="new 15.167 -16.333 1000.636 1000.678" xml:space="preserve">
<path fill="#03B7C0" d="M952.088,473.677c5.161,241.571-186.524,441.62-428.13,446.787
	c-241.606,5.161-441.62-186.559-446.787-428.13C72.01,250.765,263.695,50.713,505.301,45.549S946.955,232.105,952.088,473.677z"/>
<g>
	<g>
		<path fill-rule="evenodd" clip-rule="evenodd" fill="#F8F8F8" d="M514.629,658.025c-30.196,0-54.697,26.103-54.697,58.365
			c0,32.222,24.466,58.325,54.697,58.325c30.23,0,54.697-26.103,54.697-58.325C569.326,684.196,544.86,658.025,514.629,658.025
			L514.629,658.025z M514.629,619.103c30.23,0,54.697-26.068,54.697-58.33V249.625c0-32.228-24.466-58.327-54.697-58.327
			c-30.196,0-54.697,26.099-54.697,58.327v311.148C459.933,593.036,484.399,619.103,514.629,619.103"/>
	</g>
</g>
</svg>
