<?xml version="1.0" encoding="utf-8"?>
<!-- Generator: Adobe Illustrator 17.0.0, SVG Export Plug-In . SVG Version: 6.00 Build 0)  -->
<!DOCTYPE svg PUBLIC "-//W3C//DTD SVG 1.1//EN" "http://www.w3.org/Graphics/SVG/1.1/DTD/svg11.dtd">
<svg version="1.1" id="图形" xmlns="http://www.w3.org/2000/svg" xmlns:xlink="http://www.w3.org/1999/xlink" x="0px" y="0px"
	 width="1000.636px" height="1000.678px" viewBox="15.167 -16.333 1000.636 1000.678"
	 enable-background="new 15.167 -16.333 1000.636 1000.678" xml:space="preserve">
<path fill="#03B7C0" d="M950.364,483.751c0,241.634-195.88,437.545-437.545,437.545c-241.636,0-437.551-195.911-437.551-437.545
	c0-241.634,195.914-437.548,437.551-437.548C754.484,46.202,950.364,242.117,950.364,483.751z"/>
<g>
	<g>
		<path fill-rule="evenodd" clip-rule="evenodd" fill="#FEFEFD" d="M425.863,720.898h178.963c23.467,0,44.155-12.428,57.795-31.371
			h-29.38c-10.683,0-19.299-8.226-19.299-18.409v-4.808c0-10.183,8.616-18.444,19.299-18.444h37.853c2.56,0,4.982,0.534,7.193,1.389
			c0.465-3.846,1.102-7.655,1.102-11.679v-46.434c0-3.134-2.704-5.732-6.016-5.732h-62.031c-10.683,0-19.333-8.226-19.333-18.409
			v-4.879c0-10.183,8.65-18.407,19.333-18.407h61.957c3.312,0,6.022-2.601,6.022-5.735v-58.644
			c-2.532,1.136-5.276,1.848-8.301,1.848h-37.813c-10.682,0-19.333-8.26-19.333-18.444v-4.804c0-10.187,8.651-18.41,19.333-18.41
			h37.813c3.025,0,5.769,0.675,8.301,1.814v-69.043c0-3.131-2.71-5.732-6.022-5.732h-61.957c-10.683,0-19.333-8.226-19.333-18.409
			v-4.808c0-10.183,8.65-18.409,19.333-18.409h61.957c3.312,0,6.022-2.598,6.022-5.732v-9.328c0-3.134-2.71-5.735-6.022-5.701
			l-315.981,1.249c-3.312,0.035-6.016,2.598-6.016,5.766v326.31C351.301,683.58,384.699,720.898,425.863,720.898z"/>
		<path fill-rule="evenodd" clip-rule="evenodd" fill="#FEFEFD" d="M725.604,192.052H341.33h-32.508h-8.76
			c-3.312,0-6.022,2.6-6.022,5.735v45.22c0,0.178,0,0.356,0.035,0.5l0.218,438.185c0,52.806,41.555,93.758,96.818,93.758h240.351
			c55.297,0,100.13-42.766,100.13-95.644V197.786C731.591,194.652,728.882,192.052,725.604,192.052z M698.762,674.142
			c0,3.134-1.108,8.085-2.457,10.933c0,0-27.743,59.146-64.912,59.146H391.111c-36.498,0-64.023-26.885-64.023-62.53V222.889
			l371.674,0.425V674.142z"/>
	</g>
</g>
<path fill="#03B7C0" d="M950.364,483.751c0,241.634-195.88,437.545-437.545,437.545c-241.636,0-437.551-195.911-437.551-437.545
	c0-241.634,195.914-437.548,437.551-437.548C754.484,46.202,950.364,242.117,950.364,483.751z"/>
<g>
	<g>
		<path fill-rule="evenodd" clip-rule="evenodd" fill="#FEFEFD" d="M425.863,720.898h178.963c23.467,0,44.155-12.428,57.795-31.371
			h-29.38c-10.683,0-19.299-8.226-19.299-18.409v-4.808c0-10.183,8.616-18.444,19.299-18.444h37.853c2.56,0,4.982,0.534,7.193,1.389
			c0.465-3.846,1.102-7.655,1.102-11.679v-46.434c0-3.134-2.704-5.732-6.016-5.732h-62.031c-10.683,0-19.333-8.226-19.333-18.409
			v-4.879c0-10.183,8.65-18.407,19.333-18.407h61.957c3.312,0,6.022-2.601,6.022-5.735v-58.644
			c-2.532,1.136-5.276,1.848-8.301,1.848h-37.813c-10.682,0-19.333-8.26-19.333-18.444v-4.804c0-10.187,8.651-18.41,19.333-18.41
			h37.813c3.025,0,5.769,0.675,8.301,1.814v-69.043c0-3.131-2.71-5.732-6.022-5.732h-61.957c-10.683,0-19.333-8.226-19.333-18.409
			v-4.808c0-10.183,8.65-18.409,19.333-18.409h61.957c3.312,0,6.022-2.598,6.022-5.732v-9.328c0-3.134-2.71-5.735-6.022-5.701
			l-315.981,1.249c-3.312,0.035-6.016,2.598-6.016,5.766v326.31C351.301,683.58,384.699,720.898,425.863,720.898z"/>
		<path fill-rule="evenodd" clip-rule="evenodd" fill="#FEFEFD" d="M725.604,192.052H341.33h-32.508h-8.76
			c-3.312,0-6.022,2.6-6.022,5.735v45.22c0,0.178,0,0.356,0.035,0.5l0.218,438.185c0,52.806,41.555,93.758,96.818,93.758h240.351
			c55.297,0,100.13-42.766,100.13-95.644V197.786C731.591,194.652,728.882,192.052,725.604,192.052z M698.762,674.142
			c0,3.134-1.108,8.085-2.457,10.933c0,0-27.743,59.146-64.912,59.146H391.111c-36.498,0-64.023-26.885-64.023-62.53V222.889
			l371.674,0.425V674.142z"/>
	</g>
</g>
</svg>
