<?xml version="1.0" encoding="utf-8"?>
<!-- Generator: Adobe Illustrator 17.0.0, SVG Export Plug-In . SVG Version: 6.00 Build 0)  -->
<!DOCTYPE svg PUBLIC "-//W3C//DTD SVG 1.1//EN" "http://www.w3.org/Graphics/SVG/1.1/DTD/svg11.dtd">
<svg version="1.1" id="图形" xmlns="http://www.w3.org/2000/svg" xmlns:xlink="http://www.w3.org/1999/xlink" x="0px" y="0px"
	 width="1000.636px" height="1000.678px" viewBox="15.167 -16.333 1000.636 1000.678"
	 enable-background="new 15.167 -16.333 1000.636 1000.678" xml:space="preserve">
<path fill="#03B7C0" d="M954.631,486.082c0,242.805-196.859,439.667-439.668,439.667c-242.803,0-439.667-196.862-439.667-439.667
	c0-242.806,196.864-439.668,439.667-439.668C757.772,46.414,954.631,243.275,954.631,486.082z"/>
<g>
	<path fill-rule="evenodd" clip-rule="evenodd" fill="#FFFFFF" d="M815.917,473.737c5.936,31.486-0.611,65.836-20.074,91.562
		c-21.181,28.123-50.166,44.332-86.125,44.401c-125.909,0.288-251.859,0.109-377.734,0.109c-22.398,0-43.758-2.255-63.976-14.132
		c-74.312-43.545-76.354-158.402,3.005-198.474c2.434-1.217,5.295-3.652,5.872-6.048c1.356-5.725,1.073-11.845,2.18-17.677
		c3.04-16.243,4.113-33.346,10.129-48.482c9.477-23.829,24.434-45.082,44.652-61.291c66.981-53.636,168.485-47.481,223.554,20.538
		c4.147,5.151,7.372,3.934,12.096,2.218c53.241-19.393,134.533-13.596,164.268,42.041c8.012,14.958,15.528,37.321,15.666,54.424
		c0.075,9.194,4.546,12.809,11.237,15.955C791.367,413.304,809.941,442.105,815.917,473.737L815.917,473.737z"/>
	<path fill-rule="evenodd" clip-rule="evenodd" fill="#FFFFFF" d="M440.755,744.343c-1.788-4.006-5.007-8.012-5.151-12.093
		c-0.646-14.455-0.825-28.982,0.069-43.366c0.288-4.043,4.009-9.696,7.551-11.233c5.618-2.434,11.917-0.433,15.211,5.866
		c1.177,2.29,2.215,5.082,2.146,7.585c-0.288,14.669-0.646,29.268-1.719,43.868c-0.289,3.256-3.507,6.299-5.364,9.373
		C449.235,744.343,444.978,744.343,440.755,744.343L440.755,744.343z"/>
	<path fill-rule="evenodd" clip-rule="evenodd" fill="#FFFFFF" d="M575.288,744.343c-1.788-4.401-5.041-8.765-5.076-13.166
		c-0.144-15.315,0.929-30.592,1.431-45.872c0.283-9.301,7.014-8.087,13.06-8.191c6.368-0.145,8.41,4.683,8.548,9.229
		c0.467,16.318,0.358,32.668,0,49.018c-0.069,3.005-2.215,5.976-3.432,8.981C584.95,744.343,580.122,744.343,575.288,744.343
		L575.288,744.343z"/>
	<path fill-rule="evenodd" clip-rule="evenodd" fill="#FFFFFF" d="M368.052,666.022c0-7.551,0.392-15.136-0.075-22.614
		c-0.496-7.478,4.298-11.412,9.875-11.199c4.655,0.179,9.737,4.079,13.527,7.478c1.932,1.751,2.076,6.118,2.001,9.267
		c-0.357,13.74-0.929,27.48-1.713,41.22c-0.433,7.406-5.37,11.127-12.275,10.302c-6.836-0.784-12.2-4.006-11.45-12.736
		C368.554,680.512,368.052,673.25,368.052,666.022L368.052,666.022z"/>
	<path fill-rule="evenodd" clip-rule="evenodd" fill="#FFFFFF" d="M502.585,665.95c0-7.55,0.427-15.139-0.109-22.683
		c-0.502-7.086,4.118-10.986,9.2-10.986c4.793,0,10.233,3.435,14.098,6.798c2.111,1.788,2.215,6.657,2.111,10.161
		c-0.323,14.063-0.755,28.158-1.829,42.186c-0.502,6.657-5.295,10.268-11.952,9.125c-6.224-1.11-11.663-3.974-11.519-11.882
		C502.689,681.082,502.585,673.535,502.585,665.95L502.585,665.95z"/>
	<path fill-rule="evenodd" clip-rule="evenodd" fill="#FFFFFF" d="M663.346,664.839c-0.894,9.232-1.465,18.176-2.757,26.978
		c-0.929,6.048-5.006,9.448-11.375,8.803c-5.584-0.502-10.343-2.29-10.308-9.339c0-16.89,0.075-33.813-0.144-50.7
		c-0.069-6.475,4.367-9.266,8.946-8.479c4.58,0.753,11.237,3.862,12.385,7.441C662.735,647.558,662.452,656.504,663.346,664.839
		L663.346,664.839z"/>
</g>
</svg>
