<?xml version="1.0" encoding="utf-8"?>
<!-- Generator: Adobe Illustrator 17.0.0, SVG Export Plug-In . SVG Version: 6.00 Build 0)  -->
<!DOCTYPE svg PUBLIC "-//W3C//DTD SVG 1.1//EN" "http://www.w3.org/Graphics/SVG/1.1/DTD/svg11.dtd">
<svg version="1.1" id="图形" xmlns="http://www.w3.org/2000/svg" xmlns:xlink="http://www.w3.org/1999/xlink" x="0px" y="0px"
	 width="1000.636px" height="1000.678px" viewBox="15.167 -16.333 1000.636 1000.678"
	 enable-background="new 15.167 -16.333 1000.636 1000.678" xml:space="preserve">
<path fill="#03B7C0" d="M952.319,483.372c0,241.591-195.876,437.472-437.472,437.472c-241.625,0-437.472-195.882-437.472-437.472
	c0-241.593,195.847-437.475,437.472-437.475C756.444,45.898,952.319,241.779,952.319,483.372z"/>
<g>
	<path fill-rule="evenodd" clip-rule="evenodd" fill="#FFFFFF" d="M768.973,324.126c0,0-150.31,119.372-162.983,135.144V342.745
		c0-12.96-10.216-23.426-22.786-23.426H264.212c-12.598,0-22.78,10.466-22.78,23.426v281.253c0,12.959,10.182,23.425,22.78,23.425
		h318.992c12.57,0,22.786-10.466,22.786-23.425V508.933c12.672,13.672,162.983,136.071,162.983,136.071
		c23.073,0,19.015-4.485,19.015-28.198V355.027C787.988,331.28,792.045,324.126,768.973,324.126L768.973,324.126z"/>
</g>
</svg>
