<?xml version="1.0" encoding="utf-8"?>
<!-- Generator: Adobe Illustrator 17.0.0, SVG Export Plug-In . SVG Version: 6.00 Build 0)  -->
<!DOCTYPE svg PUBLIC "-//W3C//DTD SVG 1.1//EN" "http://www.w3.org/Graphics/SVG/1.1/DTD/svg11.dtd">
<svg version="1.1" id="图形" xmlns="http://www.w3.org/2000/svg" xmlns:xlink="http://www.w3.org/1999/xlink" x="0px" y="0px"
	 width="1000.636px" height="1000.678px" viewBox="15.167 -16.333 1000.636 1000.678"
	 enable-background="new 15.167 -16.333 1000.636 1000.678" xml:space="preserve">
<path fill="#03B7C0" d="M951.646,483.42c0,241.45-195.731,437.216-437.212,437.216c-241.453,0-437.218-195.765-437.218-437.216
	c0-241.447,195.765-437.212,437.218-437.212C755.915,46.207,951.646,241.973,951.646,483.42z"/>
<g>
	<path fill-rule="evenodd" clip-rule="evenodd" fill="#FFFFFF" d="M408.267,185.138c-3.131,0-5.753,2.476-5.753,5.536l0.216,129.044
		c0,2.99,2.552,5.465,5.758,5.465l121.464-0.073c3.13,0,5.758,2.478,5.758,5.465v45.729c0,2.987-2.552,5.465-5.758,5.465
		l-121.464,0.073c-3.13,0-5.758,7.63-5.758,10.619l0.076,59.914c0,3.025,2.622,5.501,5.753,5.501l121.464-0.073
		c3.206,0,5.758,2.441,5.758,5.466v56.036c0,2.99-2.552,0.312-5.682,0.312l-121.539,0.073c-3.13,0-5.682,2.441-5.682,5.463
		l0.075,67.328c0,3.022,2.547,5.501,5.758,5.501l121.459-0.073c3.135,0,5.758,2.441,5.758,5.466v50.883
		c0,2.987-2.552,5.466-5.758,5.466l-121.459,0.071c-3.135,0-5.758,2.441-5.758,5.466l0.216,111.126c0,3.022,2.552,5.463,5.682,5.463
		l211.815-0.183c3.135,0,5.682-2.476,5.682-5.501l-0.579-585.709c0-3.06-2.552-5.465-5.758-5.465L408.267,185.138L408.267,185.138z"
		/>
</g>
</svg>
