<?xml version="1.0" encoding="utf-8"?>
<!-- Generator: Adobe Illustrator 17.0.0, SVG Export Plug-In . SVG Version: 6.00 Build 0)  -->
<!DOCTYPE svg PUBLIC "-//W3C//DTD SVG 1.1//EN" "http://www.w3.org/Graphics/SVG/1.1/DTD/svg11.dtd">
<svg version="1.1" id="图形" xmlns="http://www.w3.org/2000/svg" xmlns:xlink="http://www.w3.org/1999/xlink" x="0px" y="0px"
	 width="1000.636px" height="1000.678px" viewBox="15.167 -16.333 1000.636 1000.678"
	 enable-background="new 15.167 -16.333 1000.636 1000.678" xml:space="preserve">
<path fill="#03B7C0" d="M950.747,484.935c0,241.577-195.868,437.445-437.442,437.445c-241.58,0-437.442-195.868-437.442-437.445
	c0-241.574,195.863-437.442,437.442-437.442C754.879,47.494,950.747,243.362,950.747,484.935z"/>
<g>
	<g>
		<g>
			<path fill-rule="evenodd" clip-rule="evenodd" fill="#FFFFFF" d="M258.13,375.36c0,2.99,1.854,6.835,4.057,8.545
				c0,0,59.376,45.496,122.747,45.496c57.029,0,113.277-45.387,113.277-45.387c2.204-1.745,5.837-4.666,7.972-6.445
				c0,0,56.249-45.356,129.157-45.356c60.231,0,125.806,45.677,125.806,45.677c2.278,1.601,4.201,0.459,4.201-2.531v-55.106
				c0-2.99-1.923-6.727-4.201-8.33c0,0-65.574-45.709-128.939-45.709c-69.775,0-126.592,48.593-126.592,48.593
				c-2.135,1.816-5.481,5.09-7.404,7.191c0,0-56.249,62.263-113.277,62.263c-63.371,0-122.747-45.493-122.747-45.493
				c-2.204-1.711-4.057-0.643-4.057,2.347V375.36z"/>
		</g>
		<g>
			<path fill-rule="evenodd" clip-rule="evenodd" fill="#FFFFFF" d="M258.13,503.84c0,2.99,1.854,6.798,4.057,8.543
				c0,0,59.376,45.462,122.747,45.462c57.029,0,113.277-45.356,113.277-45.356c2.204-1.779,5.837-4.663,7.972-6.442
				c0,0,56.249-45.387,129.157-45.387c60.231,0,128.939,45.78,128.939,45.78c2.348,1.564,4.201,0.39,4.201-2.6v-55.106
				c0-2.993-1.854-6.732-4.132-8.368c0,0-65.574-45.674-129.008-45.674c-72.909,3.452-126.592,51.941-126.592,51.941
				c-2.135,1.885-5.487,5.091-7.547,7.082c0,0-59.239,59.024-116.268,59.024c-63.371,0-122.747-45.496-122.747-45.496
				c-2.204-1.707-4.057-0.678-4.057,2.315V503.84z"/>
		</g>
		<g>
			<path fill-rule="evenodd" clip-rule="evenodd" fill="#FFFFFF" d="M258.13,649.652c0,2.993,1.854,6.801,4.057,8.545
				c0,0,59.376,45.459,122.747,45.459c57.029,0,113.277-45.353,113.277-45.353c2.204-1.779,5.837-4.697,7.972-6.442
				c0,0,56.249-45.39,129.157-45.39c60.231,0,128.939,45.78,128.939,45.78c2.348,1.567,4.201,0.393,4.201-2.6v-55.106
				c0-2.99-1.854-6.764-4.132-8.365c0,0-65.574-45.674-129.008-45.674c-69.706,0-126.523,48.558-126.523,48.558
				c-2.135,1.851-5.555,5.053-7.472,7.119c0,0-59.382,62.369-116.411,62.369c-63.371,0-122.747-45.496-122.747-45.496
				c-2.204-1.707-4.057-0.675-4.057,2.315V649.652z"/>
		</g>
	</g>
</g>
</svg>
