<svg xmlns="http://www.w3.org/2000/svg" width="1000.636" height="1000.678" viewBox="15.167 -16.333 1000.636 1000.678"><path fill="#A0A4A9" d="M952.963 474.907c5.166 241.827-186.722 442.088-428.584 447.26-241.861 5.166-442.088-186.757-447.26-428.584C71.953 251.759 263.841 51.495 505.703 46.326s442.122 186.754 447.26 428.581z"/><path fill="#FFF" d="M447.798 216.275l-8.892 14.449c44.458 50.389 86.137 101.142 125.038 152.269l-36.678 31.12c-42.609-59.276-80.398-107.437-113.368-144.489-37.79 59.649-84.47 114.111-140.043 163.384-11.857-14.449-22.785-25.932-32.788-34.455 72.244-59.645 122.259-120.406 150.046-182.278h56.685zm-111.145 356.22a32441.305 32441.305 0 0 1 65.576 72.244l77.246-123.927H276.079v-41.124h254.523v41.679l-98.919 156.715a3324.351 3324.351 0 0 1 35.011 38.901l-35.567 32.232c-37.051-46.312-79.1-95.767-126.149-148.379l31.675-28.341zm30.009-202.284l36.122-21.117c20.006 31.494 38.345 61.316 55.017 89.472l-40.012 24.452c-16.303-32.971-33.344-63.909-51.127-92.807zm347.329 60.574c49.642 43.347 74.65 91.139 75.023 143.378-.373 58.168-26.305 91.325-77.801 99.474-20.379 2.223-43.902 1.298-70.578-2.779-1.485-13.337-4.264-30.378-8.336-51.127 21.486 5.557 41.493 8.336 60.018 8.336 35.936 0 52.608-21.673 50.016-65.02-1.485-37.79-28.342-79.469-80.581-125.038 27.413-57.422 50.385-110.034 68.91-157.826H621.185v474.034h-43.347V240.171h199.506v41.68c-21.117 51.126-42.236 100.772-63.353 148.934z"/></svg>