<svg xmlns="http://www.w3.org/2000/svg" width="1000.636" height="1000.678" viewBox="15.167 -16.333 1000.636 1000.678"><path fill="#03B7C0" d="M952.088 473.677c5.161 241.571-186.524 441.62-428.13 446.787-241.606 5.161-441.62-186.559-446.787-428.13C72.01 250.765 263.695 50.713 505.301 45.549s441.654 186.556 446.787 428.128z"/><path fill-rule="evenodd" clip-rule="evenodd" fill="#F8F8F8" d="M514.629 658.025c-30.196 0-54.697 26.103-54.697 58.365 0 32.222 24.466 58.325 54.697 58.325 30.23 0 54.697-26.103 54.697-58.325 0-32.194-24.466-58.365-54.697-58.365zm0-38.922c30.23 0 54.697-26.068 54.697-58.33V249.625c0-32.228-24.466-58.327-54.697-58.327-30.196 0-54.697 26.099-54.697 58.327v311.148c.001 32.263 24.467 58.33 54.697 58.33"/></svg>