<svg xmlns="http://www.w3.org/2000/svg" width="1000.636" height="1000.678" viewBox="15.167 -16.333 1000.636 1000.678"><path fill="#03B7C0" d="M954.631 486.082c0 242.805-196.859 439.667-439.668 439.667-242.803 0-439.667-196.862-439.667-439.667 0-242.806 196.864-439.668 439.667-439.668 242.809 0 439.668 196.861 439.668 439.668z"/><path d="M815.917 473.737c5.936 31.486-.611 65.836-20.074 91.562-21.181 28.123-50.166 44.332-86.125 44.401-125.909.288-251.859.109-377.734.109-22.398 0-43.758-2.255-63.976-14.132-74.312-43.545-76.354-158.402 3.005-198.474 2.434-1.217 5.295-3.652 5.872-6.048 1.356-5.725 1.073-11.845 2.18-17.677 3.04-16.243 4.113-33.346 10.129-48.482 9.477-23.829 24.434-45.082 44.652-61.291 66.981-53.636 168.485-47.481 223.554 20.538 4.147 5.151 7.372 3.934 12.096 2.218 53.241-19.393 134.533-13.596 164.268 42.041 8.012 14.958 15.528 37.321 15.666 54.424.075 9.194 4.546 12.809 11.237 15.955 30.7 14.423 49.274 43.224 55.25 74.856zM440.755 744.343c-1.788-4.006-5.007-8.012-5.151-12.093-.646-14.455-.825-28.982.069-43.366.288-4.043 4.009-9.696 7.551-11.233 5.618-2.434 11.917-.433 15.211 5.866 1.177 2.29 2.215 5.082 2.146 7.585-.288 14.669-.646 29.268-1.719 43.868-.289 3.256-3.507 6.299-5.364 9.373h-12.743zm134.533 0c-1.788-4.401-5.041-8.765-5.076-13.166-.144-15.315.929-30.592 1.431-45.872.283-9.301 7.014-8.087 13.06-8.191 6.368-.145 8.41 4.683 8.548 9.229.467 16.318.358 32.668 0 49.018-.069 3.005-2.215 5.976-3.432 8.981l-14.531.001zm-207.236-78.321c0-7.551.392-15.136-.075-22.614-.496-7.478 4.298-11.412 9.875-11.199 4.655.179 9.737 4.079 13.527 7.478 1.932 1.751 2.076 6.118 2.001 9.267-.357 13.74-.929 27.48-1.713 41.22-.433 7.406-5.37 11.127-12.275 10.302-6.836-.784-12.2-4.006-11.45-12.736.612-7.228.11-14.49.11-21.718zm134.533-.072c0-7.55.427-15.139-.109-22.683-.502-7.086 4.118-10.986 9.2-10.986 4.793 0 10.233 3.435 14.098 6.798 2.111 1.788 2.215 6.657 2.111 10.161-.323 14.063-.755 28.158-1.829 42.186-.502 6.657-5.295 10.268-11.952 9.125-6.224-1.11-11.663-3.974-11.519-11.882.104-7.587 0-15.134 0-22.719zm160.761-1.111c-.894 9.232-1.465 18.176-2.757 26.978-.929 6.048-5.006 9.448-11.375 8.803-5.584-.502-10.343-2.29-10.308-9.339 0-16.89.075-33.813-.144-50.7-.069-6.475 4.367-9.266 8.946-8.479 4.58.753 11.237 3.862 12.385 7.441 2.642 8.015 2.359 16.961 3.253 25.296z" fill-rule="evenodd" clip-rule="evenodd" fill="#FFF"/></svg>