<svg xmlns="http://www.w3.org/2000/svg" width="1000.636" height="1000.678" viewBox="15.167 -16.333 1000.636 1000.678"><path fill="#03B7C0" d="M950.364 483.751c0 241.634-195.88 437.545-437.545 437.545-241.636 0-437.551-195.911-437.551-437.545 0-241.634 195.914-437.548 437.551-437.548 241.665-.001 437.545 195.914 437.545 437.548z"/><g fill-rule="evenodd" clip-rule="evenodd" fill="#FEFEFD"><path d="M425.863 720.898h178.963c23.467 0 44.155-12.428 57.795-31.371h-29.38c-10.683 0-19.299-8.226-19.299-18.409v-4.808c0-10.183 8.616-18.444 19.299-18.444h37.853c2.56 0 4.982.534 7.193 1.389.465-3.846 1.102-7.655 1.102-11.679v-46.434c0-3.134-2.704-5.732-6.016-5.732h-62.031c-10.683 0-19.333-8.226-19.333-18.409v-4.879c0-10.183 8.65-18.407 19.333-18.407h61.957c3.312 0 6.022-2.601 6.022-5.735v-58.644c-2.532 1.136-5.276 1.848-8.301 1.848h-37.813c-10.682 0-19.333-8.26-19.333-18.444v-4.804c0-10.187 8.651-18.41 19.333-18.41h37.813c3.025 0 5.769.675 8.301 1.814v-69.043c0-3.131-2.71-5.732-6.022-5.732h-61.957c-10.683 0-19.333-8.226-19.333-18.409v-4.808c0-10.183 8.65-18.409 19.333-18.409h61.957c3.312 0 6.022-2.598 6.022-5.732v-9.328c0-3.134-2.71-5.735-6.022-5.701l-315.981 1.249c-3.312.035-6.016 2.598-6.016 5.766v326.31c-.001 46.077 33.397 83.395 74.561 83.395z"/><path d="M725.604 192.052H300.062c-3.312 0-6.022 2.6-6.022 5.735v45.22c0 .178 0 .356.035.5l.218 438.185c0 52.806 41.555 93.758 96.818 93.758h240.351c55.297 0 100.13-42.766 100.13-95.644v-482.02c-.001-3.134-2.71-5.734-5.988-5.734zm-26.842 482.09c0 3.134-1.108 8.085-2.457 10.933 0 0-27.743 59.146-64.912 59.146H391.111c-36.498 0-64.023-26.885-64.023-62.53V222.889l371.674.425v450.828z"/></g><path fill="#03B7C0" d="M950.364 483.751c0 241.634-195.88 437.545-437.545 437.545-241.636 0-437.551-195.911-437.551-437.545 0-241.634 195.914-437.548 437.551-437.548 241.665-.001 437.545 195.914 437.545 437.548z"/><g fill-rule="evenodd" clip-rule="evenodd" fill="#FEFEFD"><path d="M425.863 720.898h178.963c23.467 0 44.155-12.428 57.795-31.371h-29.38c-10.683 0-19.299-8.226-19.299-18.409v-4.808c0-10.183 8.616-18.444 19.299-18.444h37.853c2.56 0 4.982.534 7.193 1.389.465-3.846 1.102-7.655 1.102-11.679v-46.434c0-3.134-2.704-5.732-6.016-5.732h-62.031c-10.683 0-19.333-8.226-19.333-18.409v-4.879c0-10.183 8.65-18.407 19.333-18.407h61.957c3.312 0 6.022-2.601 6.022-5.735v-58.644c-2.532 1.136-5.276 1.848-8.301 1.848h-37.813c-10.682 0-19.333-8.26-19.333-18.444v-4.804c0-10.187 8.651-18.41 19.333-18.41h37.813c3.025 0 5.769.675 8.301 1.814v-69.043c0-3.131-2.71-5.732-6.022-5.732h-61.957c-10.683 0-19.333-8.226-19.333-18.409v-4.808c0-10.183 8.65-18.409 19.333-18.409h61.957c3.312 0 6.022-2.598 6.022-5.732v-9.328c0-3.134-2.71-5.735-6.022-5.701l-315.981 1.249c-3.312.035-6.016 2.598-6.016 5.766v326.31c-.001 46.077 33.397 83.395 74.561 83.395z"/><path d="M725.604 192.052H300.062c-3.312 0-6.022 2.6-6.022 5.735v45.22c0 .178 0 .356.035.5l.218 438.185c0 52.806 41.555 93.758 96.818 93.758h240.351c55.297 0 100.13-42.766 100.13-95.644v-482.02c-.001-3.134-2.71-5.734-5.988-5.734zm-26.842 482.09c0 3.134-1.108 8.085-2.457 10.933 0 0-27.743 59.146-64.912 59.146H391.111c-36.498 0-64.023-26.885-64.023-62.53V222.889l371.674.425v450.828z"/></g></svg>