<svg xmlns="http://www.w3.org/2000/svg" width="1000.636" height="1000.678" viewBox="15.167 -16.333 1000.636 1000.678"><path fill="#03B7C0" d="M952.319 483.372c0 241.591-195.876 437.472-437.472 437.472-241.625 0-437.472-195.882-437.472-437.472 0-241.593 195.847-437.475 437.472-437.475 241.597.001 437.472 195.882 437.472 437.475z"/><path fill-rule="evenodd" clip-rule="evenodd" fill="#FFF" d="M768.973 324.126S618.663 443.498 605.99 459.27V342.745c0-12.96-10.216-23.426-22.786-23.426H264.212c-12.598 0-22.78 10.466-22.78 23.426v281.253c0 12.959 10.182 23.425 22.78 23.425h318.992c12.57 0 22.786-10.466 22.786-23.425V508.933c12.672 13.672 162.983 136.071 162.983 136.071 23.073 0 19.015-4.485 19.015-28.198V355.027c0-23.747 4.057-30.901-19.015-30.901z"/></svg>