<svg xmlns="http://www.w3.org/2000/svg" width="1000.636" height="1000.678" viewBox="15.167 -16.333 1000.636 1000.678"><path fill="#03B7C0" d="M951.646 483.42c0 241.45-195.731 437.216-437.212 437.216-241.453 0-437.218-195.765-437.218-437.216 0-241.447 195.765-437.212 437.218-437.212 241.481-.001 437.212 195.765 437.212 437.212z"/><path fill-rule="evenodd" clip-rule="evenodd" fill="#FFF" d="M408.267 185.138c-3.131 0-5.753 2.476-5.753 5.536l.216 129.044c0 2.99 2.552 5.465 5.758 5.465l121.464-.073c3.13 0 5.758 2.478 5.758 5.465v45.729c0 2.987-2.552 5.465-5.758 5.465l-121.464.073c-3.13 0-5.758 7.63-5.758 10.619l.076 59.914c0 3.025 2.622 5.501 5.753 5.501l121.464-.073c3.206 0 5.758 2.441 5.758 5.466v56.036c0 2.99-2.552.312-5.682.312l-121.539.073c-3.13 0-5.682 2.441-5.682 5.463l.075 67.328c0 3.022 2.547 5.501 5.758 5.501l121.459-.073c3.135 0 5.758 2.441 5.758 5.466v50.883c0 2.987-2.552 5.466-5.758 5.466l-121.459.071c-3.135 0-5.758 2.441-5.758 5.466l.216 111.126c0 3.022 2.552 5.463 5.682 5.463l211.815-.183c3.135 0 5.682-2.476 5.682-5.501l-.579-585.709c0-3.06-2.552-5.465-5.758-5.465l-211.744.146z"/></svg>