<svg xmlns="http://www.w3.org/2000/svg" width="1000.636" height="1000.678" viewBox="15.167 -16.333 1000.636 1000.678"><path fill="#03B7C0" d="M950.747 484.935c0 241.577-195.868 437.445-437.442 437.445-241.58 0-437.442-195.868-437.442-437.445 0-241.574 195.863-437.442 437.442-437.442 241.574.001 437.442 195.869 437.442 437.442z"/><path fill-rule="evenodd" clip-rule="evenodd" fill="#FFF" d="M258.13 375.36c0 2.99 1.854 6.835 4.057 8.545 0 0 59.376 45.496 122.747 45.496 57.029 0 113.277-45.387 113.277-45.387 2.204-1.745 5.837-4.666 7.972-6.445 0 0 56.249-45.356 129.157-45.356 60.231 0 125.806 45.677 125.806 45.677 2.278 1.601 4.201.459 4.201-2.531v-55.106c0-2.99-1.923-6.727-4.201-8.33 0 0-65.574-45.709-128.939-45.709-69.775 0-126.592 48.593-126.592 48.593-2.135 1.816-5.481 5.09-7.404 7.191 0 0-56.249 62.263-113.277 62.263-63.371 0-122.747-45.493-122.747-45.493-2.204-1.711-4.057-.643-4.057 2.347v34.245z"/><path fill-rule="evenodd" clip-rule="evenodd" fill="#FFF" d="M258.13 503.84c0 2.99 1.854 6.798 4.057 8.543 0 0 59.376 45.462 122.747 45.462 57.029 0 113.277-45.356 113.277-45.356 2.204-1.779 5.837-4.663 7.972-6.442 0 0 56.249-45.387 129.157-45.387 60.231 0 128.939 45.78 128.939 45.78 2.348 1.564 4.201.39 4.201-2.6v-55.106c0-2.993-1.854-6.732-4.132-8.368 0 0-65.574-45.674-129.008-45.674-72.909 3.452-126.592 51.941-126.592 51.941-2.135 1.885-5.487 5.091-7.547 7.082 0 0-59.239 59.024-116.268 59.024-63.371 0-122.747-45.496-122.747-45.496-2.204-1.707-4.057-.678-4.057 2.315v34.282zm0 145.812c0 2.993 1.854 6.801 4.057 8.545 0 0 59.376 45.459 122.747 45.459 57.029 0 113.277-45.353 113.277-45.353 2.204-1.779 5.837-4.697 7.972-6.442 0 0 56.249-45.39 129.157-45.39 60.231 0 128.939 45.78 128.939 45.78 2.348 1.567 4.201.393 4.201-2.6v-55.106c0-2.99-1.854-6.764-4.132-8.365 0 0-65.574-45.674-129.008-45.674-69.706 0-126.523 48.558-126.523 48.558-2.135 1.851-5.555 5.053-7.472 7.119 0 0-59.382 62.369-116.411 62.369-63.371 0-122.747-45.496-122.747-45.496-2.204-1.707-4.057-.675-4.057 2.315v34.281z"/></svg>